<?xml version="1.0" standalone="no"?>
<!DOCTYPE svg PUBLIC "-//W3C//DTD SVG 20010904//EN"
 "http://www.w3.org/TR/2001/REC-SVG-20010904/DTD/svg10.dtd">
<svg version="1.0" xmlns="http://www.w3.org/2000/svg"
 width="700.000000pt" height="700.000000pt" viewBox="0 0 700.000000 700.000000"
 preserveAspectRatio="xMidYMid meet">
<metadata>
Created by potrace 1.11, written by Peter Selinger 2001-2013
</metadata>
<g transform="translate(0.000000,700.000000) scale(0.100000,-0.100000)"
fill="#000000" stroke="none">
<path d="M3245 6981 c-149 -36 -220 -68 -346 -152 -101 -68 -217 -194 -269
-292 l-23 -44 -141 3 c-78 2 -161 -1 -186 -6 -25 -5 -56 -12 -69 -14 -237 -50
-495 -257 -614 -491 -29 -59 -80 -195 -72 -195 3 0 0 -11 -5 -24 -18 -49 -21
-179 -21 -1029 0 -665 -3 -866 -12 -861 -7 4 -19 12 -27 19 -38 30 -176 77
-275 92 -64 10 -305 10 -367 0 -117 -19 -258 -76 -373 -152 -96 -63 -260 -233
-304 -315 -63 -116 -107 -226 -118 -290 -2 -14 -7 -36 -10 -50 -3 -14 -6 -88
-8 -165 -4 -195 19 -302 100 -468 55 -111 1603 -2175 1701 -2267 139 -131 338
-234 514 -267 25 -4 715 -8 1535 -8 l1490 0 76 23 c280 83 503 292 594 557 9
28 19 59 21 70 19 94 44 225 48 245 3 14 9 50 15 80 6 30 13 69 16 85 5 34 10
58 25 130 6 28 12 64 15 80 3 26 23 131 40 215 3 14 8 39 11 55 3 17 14 77 25
135 29 156 58 311 63 343 3 15 7 35 10 45 4 15 13 62 21 117 2 11 10 58 19
105 9 47 20 123 24 170 9 105 9 2154 0 2230 -28 242 -136 430 -352 613 -56 48
-184 117 -272 146 -107 35 -130 40 -259 47 -55 4 -102 8 -104 10 -2 2 -5 41
-6 86 -9 253 -94 448 -274 629 -97 96 -145 132 -258 188 -133 68 -212 84 -407
86 -155 2 -169 3 -179 21 -112 211 -342 391 -583 455 -108 29 -328 34 -429 10z
m320 -503 c70 -24 124 -57 178 -112 73 -72 111 -146 124 -241 3 -22 6 -623 7
-1335 l1 -1294 59 2 c32 1 61 4 64 6 2 3 5 479 5 1058 0 868 2 1063 14 1108
67 266 377 405 618 278 126 -67 217 -195 232 -328 3 -25 6 -513 7 -1085 l1
-1039 59 2 c32 1 61 4 63 6 3 3 5 242 5 533 0 290 4 557 9 592 40 287 367 454
624 319 120 -64 210 -186 231 -316 12 -69 7 -2091 -5 -2182 -10 -80 -13 -97
-26 -160 -5 -28 -13 -69 -21 -119 -3 -18 -8 -43 -11 -55 -4 -18 -24 -125 -38
-204 -2 -12 -6 -30 -9 -40 -3 -9 -7 -33 -10 -52 -3 -19 -13 -71 -21 -115 -9
-44 -17 -89 -19 -100 -2 -11 -6 -33 -9 -50 -4 -16 -9 -43 -12 -60 -3 -16 -7
-41 -10 -55 -3 -14 -10 -52 -15 -85 -6 -33 -24 -127 -40 -210 -16 -82 -31
-167 -34 -189 -4 -21 -8 -41 -10 -45 -2 -3 -7 -31 -11 -61 -15 -117 -93 -238
-190 -295 -95 -56 -23 -53 -1561 -51 -1413 2 -1419 2 -1474 23 -123 46 -171
88 -296 253 -43 58 -84 112 -91 120 -6 8 -60 80 -119 160 -59 80 -111 147
-114 150 -3 3 -20 25 -37 50 -17 25 -40 56 -52 69 -12 13 -21 27 -21 30 0 3
-10 18 -22 31 -13 14 -34 41 -48 60 -13 19 -28 40 -33 45 -4 6 -202 269 -438
585 -237 316 -439 585 -449 597 -22 25 -104 173 -97 173 3 0 0 19 -7 43 -15
50 -13 174 4 237 31 116 141 255 243 307 148 75 316 77 464 8 68 -33 157 -120
230 -225 17 -25 39 -55 49 -67 11 -12 28 -34 39 -49 11 -15 49 -67 85 -114 36
-48 74 -99 85 -114 230 -310 285 -378 286 -350 0 16 1 711 1 1545 0 834 4
1540 9 1569 23 147 152 292 300 337 155 46 317 5 432 -112 62 -62 113 -157
123 -231 4 -27 7 -519 8 -1094 l1 -1044 59 2 c32 1 61 4 63 6 3 3 5 588 5
1301 0 1409 -1 1368 55 1465 60 102 154 178 263 210 64 19 184 18 245 -2z"/>
</g>
</svg>
